<svg viewBox="0 0 25.677 24.326">
  <g id="layer1" transform="translate(-10.417 -964.862)">
    <path id="rect7645-6" d="M23.255,964.862,13.12,971.619H33.391Zm-8.784,8.109a1.349,1.349,0,0,0-1.351,1.351v9.46l-2.365,4.054c-.2.344-.338.482-.338.676,0,.676.854.676,1.351.676H34.743c.48,0,1.351,0,1.351-.676,0-.2-.117-.3-.338-.676l-2.365-4.054v-9.46a1.349,1.349,0,0,0-1.351-1.351Zm2.7,2.7a1.442,1.442,0,0,1,1.351,1.351v8.109h-2.7v-8.109A1.349,1.349,0,0,1,17.174,975.674Zm6.081,0a1.341,1.341,0,0,1,1.351,1.351v8.109H21.9v-8.109A1.349,1.349,0,0,1,23.255,975.674Zm6.081,0a1.349,1.349,0,0,1,1.351,1.351v8.109h-2.7v-8.109A1.349,1.349,0,0,1,29.337,975.674Z" transform="translate(0)"/>
  </g>
</svg>
