<svg width="100%" height="100%">
		<defs>
			<pattern id="puzzle" x="0" y="0" width="192" height="192" patternUnits="userSpaceOnUse">

<g id="Grupo_61" data-name="Grupo 61" transform="translate(484 145)">
    <g id="Grupo_52" data-name="Grupo 52" transform="translate(573 521)">
      <path id="Trazado_92" data-name="Trazado 92" d="M153.867,141.294l1.568,5.49,11.084,9.962.01.01,7.148,6.423c1.492-1.487.5-.5,2.075-2.075l-16.395-18.242Zm24.012,22.3-1.71,1.71,4.917,6.58,3.373-3.373Zm-7.437-10.137c2.459,2.733-1.1-1.222,2.615,2.908l10.663-9.583,1.582-5.542-5.784,1.388Zm-7.456,11.847-1.71-1.71-6.584,4.922,3.373,3.368Zm15.1-4.879-2.534,2.53-.009.01-.01.01L173,165.5l.659.663,5.083-5.083ZM166.155,165.5l-5.083-5.083-.663.663,3.756,3.752.01.01,1.322,1.322Zm.028-7.5,2.525,2.269-3.231,2.9-1.449-1.449-.626-.625Z" transform="translate(-1210.867 -807.242)" fill-rule="evenodd"/>
      <g id="iconfinder_gaming-game-play-multimedia-console-27_2191197" transform="translate(-1024.48 -761.416)">
        <path id="Trazado_76" data-name="Trazado 76" d="M247.919,212.429a.818.818,0,1,0-.579-.24A.82.82,0,0,0,247.919,212.429Z" transform="translate(-190.548 -103.986)"/>
        <path id="Trazado_77" data-name="Trazado 77" d="M247.919,256.389a.816.816,0,1,0-.579-.239A.823.823,0,0,0,247.919,256.389Z" transform="translate(-190.548 -143.952)"/>
        <path id="Trazado_78" data-name="Trazado 78" d="M247.919,300.359a.817.817,0,1,0-.579-.24A.823.823,0,0,0,247.919,300.359Z" transform="translate(-190.548 -183.926)"/>
        <path id="Trazado_79" data-name="Trazado 79" d="M357.018,371.063a.819.819,0,1,0,.578.24A.82.82,0,0,0,357.018,371.063Z" transform="translate(-289.734 -249.693)"/>
        <path id="Trazado_80" data-name="Trazado 80" d="M247.919,371.063a.819.819,0,1,0,.578.24A.82.82,0,0,0,247.919,371.063Z" transform="translate(-190.548 -249.693)"/>
        <path id="Trazado_81" data-name="Trazado 81" d="M138.818,371.063a.819.819,0,1,0,.578.24A.82.82,0,0,0,138.818,371.063Z" transform="translate(-91.36 -249.693)"/>
        <path id="Trazado_82" data-name="Trazado 82" d="M66.883,96.416a10.314,10.314,0,0,0-1.7.141.818.818,0,0,0-.025,1.608,5.819,5.819,0,0,1,3.012,9.777,16.021,16.021,0,0,0-7.57-3.86V102.87a.818.818,0,0,0-.818-.818H54.962a.818.818,0,0,0-.818.818v1.212a16.023,16.023,0,0,0-7.58,3.869,5.82,5.82,0,0,1,3-9.786.818.818,0,0,0-.025-1.608A10.329,10.329,0,0,0,42,115.265a16.032,16.032,0,0,0-.628,3.7h-.04a.818.818,0,0,0-.818.818V124.6a.818.818,0,0,0,.818.818H73.413a.818.818,0,0,0,.818-.818v-4.819a.818.818,0,0,0-.818-.818h-.04a16.036,16.036,0,0,0-.631-3.707,10.33,10.33,0,0,0-5.859-18.838Zm-11.1,7.272h3.183v15.273H55.779V103.688Zm-16.634,3.059A8.711,8.711,0,0,1,45.762,98.3a7.452,7.452,0,0,0-.358,10.8,16.141,16.141,0,0,0-2.858,4.541A8.618,8.618,0,0,1,39.145,106.746Zm5.212,6.854a14.481,14.481,0,0,1,2.794-3.966.816.816,0,0,0,.082-.1,14.308,14.308,0,0,1,6.91-3.781v13.207H43.005A14.417,14.417,0,0,1,44.357,113.6ZM72.6,123.78H42.147V120.6H72.6Zm-12-4.819V105.754a14.308,14.308,0,0,1,6.856,3.727.811.811,0,0,0,.119.153A14.452,14.452,0,0,1,71,115.165a.813.813,0,0,0,.041.1,14.479,14.479,0,0,1,.691,3.7H60.6Zm11.58-5.316q-.288-.693-.642-1.357l-.025-.047q-.059-.111-.12-.22l-.071-.126-.077-.134q-.056-.1-.114-.194l-.035-.058a15.962,15.962,0,0,0-1.576-2.179q-.1-.114-.2-.225a7.452,7.452,0,0,0-.358-10.8,8.711,8.711,0,0,1,6.616,8.444A8.618,8.618,0,0,1,72.178,113.645Z"/>
      </g>
      <g id="iconfinder_039_033_castle_horror_dracula_halloween_3792017" transform="translate(-911.429 -668)">
        <path id="Trazado_63" data-name="Trazado 63" d="M9.451,16.064H3V12.838L6.226,8l3.226,4.838Z" transform="translate(0 3.677)"/>
        <path id="Trazado_64" data-name="Trazado 64" d="M23.451,16.064H17V12.838L20.226,8l3.226,4.838Z" transform="translate(8.579 3.677)"/>
        <path id="Trazado_65" data-name="Trazado 65" d="M9,8V19.29h9.677V8Zm6.451,8.064H12.226V12.838a1.613,1.613,0,1,1,3.226,0Z" transform="translate(3.677 3.677)"/>
        <path id="Trazado_66" data-name="Trazado 66" d="M4,12V26.515h9.677V21.677a3.226,3.226,0,0,1,6.451,0v4.838h9.677V12l-3.226,1.613H7.226Zm6.451,9.677H7.226V18.451a1.613,1.613,0,1,1,3.226,0Zm16.128,0H23.354V18.451a1.613,1.613,0,1,1,3.226,0Z" transform="translate(0.613 6.128)"/>
        <path id="Trazado_67" data-name="Trazado 67" d="M20.9,13.29H8V10.064L14.451,2,20.9,10.064Z" transform="translate(3.064)"/>
      </g>
      <g id="iconfinder_weapon-13_707478" transform="translate(-891.044 -690)">
        <path id="Trazado_83" data-name="Trazado 83" d="M456.478,522.2a19.455,19.455,0,0,1-4.029,11.1l-.431.27v2.277H450.5v-2.277l.246-.507A19.419,19.419,0,0,0,454.6,522.1" transform="translate(-387.856 -482.008)" fill="none" stroke="#000" stroke-miterlimit="10" stroke-width="0.7"/>
        <path id="Trazado_84" data-name="Trazado 84" d="M454.6,38.881c0-.046,0-.094,0-.14a19.445,19.445,0,0,0-3.959-11.157l-.143-.307V25h1.518v2.277l.376.14a19.426,19.426,0,0,1,4.093,11.406" transform="translate(-387.856)" fill="none" stroke="#000" stroke-miterlimit="10" stroke-width="0.7"/>
        <circle id="Elipse_14" data-name="Elipse 14" cx="1.139" cy="1.139" r="1.139" transform="translate(66.573 38.352)" fill="none" stroke="#000" stroke-miterlimit="10" stroke-width="0.7"/>
        <path id="Trazado_85" data-name="Trazado 85" d="M163.825,478.818H150.5V477.3h13.325" transform="translate(-96.964 -438.568)" fill="none" stroke="#000" stroke-miterlimit="10" stroke-width="0.7"/>
        <path id="Trazado_86" data-name="Trazado 86" d="M650.4,477.3h5.286v1.518h-5.243" transform="translate(-581.687 -438.568)" fill="none" stroke="#000" stroke-miterlimit="10" stroke-width="0.7"/>
        <line id="Línea_3" data-name="Línea 3" y1="0.628" x2="0.962" transform="translate(75.462 39.409)" fill="none" stroke="#000" stroke-miterlimit="10" stroke-width="0.7"/>
        <path id="Trazado_87" data-name="Trazado 87" d="M824.5,449.859l1.518-.859,2.277,1.548-2.277,1.488-1.488-.729" transform="translate(-750.501 -411.127)" fill="none" stroke="#000" stroke-miterlimit="10" stroke-width="0.7"/>
        <rect id="Rectángulo_28" data-name="Rectángulo 28" width="5" height="1" transform="translate(54.794 39)"/>
        <path id="Trazado_88" data-name="Trazado 88" d="M53.536,450.829,50.5,450l1.518,1.518L50.5,453.036l3.036-.689" transform="translate(0 -412.097)" fill="none" stroke="#000" stroke-miterlimit="10" stroke-width="0.7"/>
        <line id="Línea_4" data-name="Línea 4" y1="11.191" x2="9.791" transform="translate(52.853 27.277)" fill="none" stroke="#000" stroke-miterlimit="10" stroke-width="0.7"/>
        <line id="Línea_5" data-name="Línea 5" x1="9.77" y1="11.163" transform="translate(52.874 40.402)" fill="none" stroke="#000" stroke-miterlimit="10" stroke-width="0.7"/>
      </g>
      <g id="Expanded" transform="translate(-774.25 -665)">
        <g id="Grupo_47" data-name="Grupo 47">
          <g id="Grupo_41" data-name="Grupo 41" transform="translate(0 8.75)">
            <path id="Trazado_70" data-name="Trazado 70" d="M26.206,29H3.794l-.157-.1A8.124,8.124,0,0,1,11.846,14.9l-.574,1.111a6.791,6.791,0,0,0-3.147-.762,6.873,6.873,0,0,0-3.949,12.5H25.824a6.873,6.873,0,0,0-3.949-12.5,6.785,6.785,0,0,0-3.15.764L18.15,14.9A8.124,8.124,0,0,1,26.363,28.9Z" transform="translate(0 -14)"/>
          </g>
          <g id="Grupo_42" data-name="Grupo 42" transform="translate(1.264 24.999)">
            <path id="Trazado_71" data-name="Trazado 71" d="M27.008,45H4.508a2.5,2.5,0,0,1,0-5h22.5a2.5,2.5,0,0,1,0,5Zm-22.5-3.75a1.25,1.25,0,0,0,0,2.5h22.5a1.25,1.25,0,0,0,0-2.5Z" transform="translate(-2.022 -40)"/>
          </g>
          <g id="Grupo_43" data-name="Grupo 43" transform="translate(6.875 8.75)">
            <path id="Trazado_72" data-name="Trazado 72" d="M12.059,25.27a.626.626,0,0,1-.589-.414,8.125,8.125,0,1,1,15.313-.014.625.625,0,0,1-1.178-.419,6.875,6.875,0,1,0-12.957.012.624.624,0,0,1-.378.8A.608.608,0,0,1,12.059,25.27Z" transform="translate(-11 -14)"/>
          </g>
          <g id="Grupo_44" data-name="Grupo 44" transform="translate(11.25)">
            <path id="Trazado_73" data-name="Trazado 73" d="M21.75,7.5A3.75,3.75,0,1,1,25.5,3.75,3.754,3.754,0,0,1,21.75,7.5Zm0-6.25a2.5,2.5,0,1,0,2.5,2.5A2.5,2.5,0,0,0,21.75,1.25Z" transform="translate(-18)"/>
          </g>
          <g id="Grupo_45" data-name="Grupo 45" transform="translate(11.25 3.125)">
            <path id="Trazado_74" data-name="Trazado 74" d="M24.875,6.25h-6.25a.625.625,0,1,1,0-1.25h6.25a.625.625,0,0,1,0,1.25Z" transform="translate(-18 -5)"/>
          </g>
          <g id="Grupo_46" data-name="Grupo 46" transform="translate(14.375 6.25)">
            <path id="Trazado_75" data-name="Trazado 75" d="M23.625,13.75A.625.625,0,0,1,23,13.125v-2.5a.625.625,0,0,1,1.25,0v2.5A.625.625,0,0,1,23.625,13.75Z" transform="translate(-23 -10)"/>
          </g>
        </g>
      </g>
    </g>
    <path id="Trazado_92-2" data-name="Trazado 92" d="M153.867,141.272l.908,3.18,6.421,5.77.006.006,4.141,3.721c.864-.862.288-.288,1.2-1.2l-9.5-10.567Zm13.909,12.918-.991.99,2.848,3.811,1.954-1.954Zm-4.308-5.872L164.982,150l6.177-5.551.916-3.21-3.35.8Zm-4.319,6.862-.991-.99-3.814,2.851,1.954,1.951Zm8.745-2.826-1.468,1.465-.005.006-.006.006-1.465,1.465.381.384,2.944-2.944Zm-6.909,2.941-2.944-2.944-.384.384,2.176,2.173.006.006.766.766Zm.016-4.344,1.463,1.314-1.871,1.682-.84-.84-.362-.362Z" transform="translate(-594.277 -122.242)" fill-rule="evenodd"/>
    <g id="iconfinder_gaming-game-play-multimedia-console-27_2191197-2" data-name="iconfinder_gaming-game-play-multimedia-console-27_2191197" transform="translate(-290.846 19.159)">
      <path id="Trazado_76-2" data-name="Trazado 76" d="M247.575,211.741a.474.474,0,1,0-.335-.139A.475.475,0,0,0,247.575,211.741Z" transform="translate(-236.07 -204.774)"/>
      <path id="Trazado_77-2" data-name="Trazado 77" d="M247.575,255.7a.473.473,0,1,0-.335-.138A.477.477,0,0,0,247.575,255.7Z" transform="translate(-236.07 -246.421)"/>
      <path id="Trazado_78-2" data-name="Trazado 78" d="M247.575,299.671a.474.474,0,1,0-.335-.139A.477.477,0,0,0,247.575,299.671Z" transform="translate(-236.07 -288.076)"/>
      <path id="Trazado_79-2" data-name="Trazado 79" d="M356.674,371.063a.474.474,0,1,0,.335.139A.475.475,0,0,0,356.674,371.063Z" transform="translate(-339.427 -356.608)"/>
      <path id="Trazado_80-2" data-name="Trazado 80" d="M247.575,371.063a.474.474,0,1,0,.335.139A.475.475,0,0,0,247.575,371.063Z" transform="translate(-236.07 -356.608)"/>
      <path id="Trazado_81-2" data-name="Trazado 81" d="M138.474,371.063a.474.474,0,1,0,.335.139A.475.475,0,0,0,138.474,371.063Z" transform="translate(-132.711 -356.608)"/>
      <path id="Trazado_82-2" data-name="Trazado 82" d="M54.524,96.416a5.975,5.975,0,0,0-.986.081.474.474,0,0,0-.014.932,3.371,3.371,0,0,1,1.744,5.663,9.28,9.28,0,0,0-4.385-2.236v-.7a.474.474,0,0,0-.474-.474H47.619a.474.474,0,0,0-.474.474v.7a9.281,9.281,0,0,0-4.391,2.241,3.371,3.371,0,0,1,1.74-5.668.474.474,0,0,0-.014-.932,5.983,5.983,0,0,0-4.371,10.837,9.287,9.287,0,0,0-.364,2.141h-.023a.474.474,0,0,0-.474.474v2.791a.474.474,0,0,0,.474.474H58.307a.474.474,0,0,0,.474-.474v-2.791a.474.474,0,0,0-.474-.474h-.023a9.289,9.289,0,0,0-.365-2.147,5.984,5.984,0,0,0-3.394-10.912Zm-6.432,4.212h1.844v8.847H48.093v-8.847ZM38.457,102.4a5.046,5.046,0,0,1,3.832-4.891,4.316,4.316,0,0,0-.207,6.257,9.35,9.35,0,0,0-1.655,2.63A4.992,4.992,0,0,1,38.457,102.4Zm3.019,3.97a8.388,8.388,0,0,1,1.618-2.3.472.472,0,0,0,.048-.057,8.288,8.288,0,0,1,4-2.19v7.65H40.693A8.351,8.351,0,0,1,41.476,106.37Zm16.357,5.9H40.2v-1.844H57.833Zm-6.949-2.791v-7.65a8.288,8.288,0,0,1,3.971,2.159.47.47,0,0,0,.069.088,8.371,8.371,0,0,1,1.987,3.2.471.471,0,0,0,.024.057,8.387,8.387,0,0,1,.4,2.142H50.884Zm6.708-3.079q-.167-.4-.372-.786l-.014-.027-.069-.128-.041-.073-.045-.078-.066-.113-.02-.034a9.246,9.246,0,0,0-.913-1.262l-.115-.13a4.316,4.316,0,0,0-.207-6.257,5.046,5.046,0,0,1,3.832,4.891A4.992,4.992,0,0,1,57.591,106.4Z" transform="translate(-37.51 -96.416)"/>
    </g>
    <g id="iconfinder_039_033_castle_horror_dracula_halloween_3792017-2" data-name="iconfinder_039_033_castle_horror_dracula_halloween_3792017" transform="translate(-362.35 18)">
      <path id="Trazado_63-2" data-name="Trazado 63" d="M6.737,12.671H3V10.8L4.868,8l1.868,2.8Z" transform="translate(-3 -2.395)"/>
      <path id="Trazado_64-2" data-name="Trazado 64" d="M20.737,12.671H17V10.8L18.868,8l1.868,2.8Z" transform="translate(-3.921 -2.395)"/>
      <path id="Trazado_65-2" data-name="Trazado 65" d="M9,8v6.54h5.605V8Zm3.737,4.671H10.868V10.8a.934.934,0,0,1,1.868,0Z" transform="translate(-3.395 -2.395)"/>
      <path id="Trazado_66-2" data-name="Trazado 66" d="M4,12v8.408H9.605v-2.8a1.868,1.868,0,0,1,3.737,0v2.8h5.605V12l-1.869.934H5.869Zm3.737,5.605H5.868V15.737a.934.934,0,1,1,1.868,0Zm9.342,0H15.211V15.737a.934.934,0,1,1,1.868,0Z" transform="translate(-3.066 -2.658)"/>
      <path id="Trazado_67-2" data-name="Trazado 67" d="M15.474,8.54H8V6.671L11.737,2l3.737,4.671Z" transform="translate(-3.329 -2)"/>
    </g>
    <g id="iconfinder_weapon-13_707478-2" data-name="iconfinder_weapon-13_707478" transform="translate(-211.028 19.159)">
      <path id="Trazado_83-2" data-name="Trazado 83" d="M453.963,522.16a11.269,11.269,0,0,1-2.334,6.429l-.25.156v1.319H450.5v-1.319l.142-.294a11.248,11.248,0,0,0,2.232-6.352" transform="translate(-443.466 -513.358)" fill="none" stroke="#000" stroke-miterlimit="10" stroke-width="0.7"/>
      <path id="Trazado_84-2" data-name="Trazado 84" d="M452.878,33.04c0-.026,0-.055,0-.081a11.264,11.264,0,0,0-2.293-6.463l-.083-.178V25h.879v1.319l.218.081a11.253,11.253,0,0,1,2.371,6.607" transform="translate(-443.466 -25)" fill="none" stroke="#000" stroke-miterlimit="10" stroke-width="0.7"/>
      <circle id="Elipse_14-2" data-name="Elipse 14" cx="0.659" cy="0.659" r="0.659" transform="translate(9.31 7.734)" fill="none" stroke="#000" stroke-miterlimit="10" stroke-width="0.7"/>
      <path id="Trazado_85-2" data-name="Trazado 85" d="M158.219,478.179H150.5V477.3h7.719" transform="translate(-148.741 -469.346)" fill="none" stroke="#000" stroke-miterlimit="10" stroke-width="0.7"/>
      <path id="Trazado_86-2" data-name="Trazado 86" d="M650.4,477.3h3.062v.879h-3.037" transform="translate(-639.85 -469.346)" fill="none" stroke="#000" stroke-miterlimit="10" stroke-width="0.7"/>
      <line id="Línea_3-2" data-name="Línea 3" y1="0.364" x2="0.557" transform="translate(14.459 8.346)" fill="none" stroke="#000" stroke-miterlimit="10" stroke-width="0.7"/>
      <path id="Trazado_87-2" data-name="Trazado 87" d="M824.5,449.5l.879-.5,1.319.9-1.319.862-.862-.422" transform="translate(-810.888 -441.544)" fill="none" stroke="#000" stroke-miterlimit="10" stroke-width="0.7"/>
      <rect id="Rectángulo_28-2" data-name="Rectángulo 28" width="2.896" height="0.579" transform="translate(2.487 8.109)"/>
      <path id="Trazado_88-2" data-name="Trazado 88" d="M52.259,450.48,50.5,450l.879.879-.879.879,1.759-.4" transform="translate(-50.5 -442.526)" fill="none" stroke="#000" stroke-miterlimit="10" stroke-width="0.7"/>
      <line id="Línea_4-2" data-name="Línea 4" y1="6.482" x2="5.672" transform="translate(1.363 1.319)" fill="none" stroke="#000" stroke-miterlimit="10" stroke-width="0.7"/>
      <line id="Línea_5-2" data-name="Línea 5" x1="5.659" y1="6.466" transform="translate(1.375 8.921)" fill="none" stroke="#000" stroke-miterlimit="10" stroke-width="0.7"/>
    </g>
    <g id="Grupo_51" data-name="Grupo 51" transform="translate(573 550)">
      <path id="Trazado_92-3" data-name="Trazado 92" d="M153.867,141.294l1.568,5.49,11.084,9.962.01.01,7.148,6.423c1.492-1.487.5-.5,2.075-2.075l-16.395-18.242Zm24.012,22.3-1.71,1.71,4.917,6.58,3.373-3.373Zm-7.437-10.137c2.459,2.733-1.1-1.222,2.615,2.908l10.663-9.583,1.582-5.542-5.784,1.388Zm-7.456,11.847-1.71-1.71-6.584,4.922,3.373,3.368Zm15.1-4.879-2.534,2.53-.009.01-.01.01L173,165.5l.659.663,5.083-5.083ZM166.155,165.5l-5.083-5.083-.663.663,3.756,3.752.01.01,1.322,1.322Zm.028-7.5,2.525,2.269-3.231,2.9-1.449-1.449-.626-.625Z" transform="translate(-1061.867 -726.242)" fill-rule="evenodd"/>
      <g id="iconfinder_gaming-game-play-multimedia-console-27_2191197-3" data-name="iconfinder_gaming-game-play-multimedia-console-27_2191197" transform="translate(-1024.48 -680.416)">
        <path id="Trazado_76-3" data-name="Trazado 76" d="M247.919,212.429a.818.818,0,1,0-.579-.24A.82.82,0,0,0,247.919,212.429Z" transform="translate(-190.548 -103.986)"/>
        <path id="Trazado_77-3" data-name="Trazado 77" d="M247.919,256.389a.816.816,0,1,0-.579-.239A.823.823,0,0,0,247.919,256.389Z" transform="translate(-190.548 -143.952)"/>
        <path id="Trazado_78-3" data-name="Trazado 78" d="M247.919,300.359a.817.817,0,1,0-.579-.24A.823.823,0,0,0,247.919,300.359Z" transform="translate(-190.548 -183.926)"/>
        <path id="Trazado_79-3" data-name="Trazado 79" d="M357.018,371.063a.819.819,0,1,0,.578.24A.82.82,0,0,0,357.018,371.063Z" transform="translate(-289.734 -249.693)"/>
        <path id="Trazado_80-3" data-name="Trazado 80" d="M247.919,371.063a.819.819,0,1,0,.578.24A.82.82,0,0,0,247.919,371.063Z" transform="translate(-190.548 -249.693)"/>
        <path id="Trazado_81-3" data-name="Trazado 81" d="M138.818,371.063a.819.819,0,1,0,.578.24A.82.82,0,0,0,138.818,371.063Z" transform="translate(-91.36 -249.693)"/>
        <path id="Trazado_82-3" data-name="Trazado 82" d="M66.883,96.416a10.314,10.314,0,0,0-1.7.141.818.818,0,0,0-.025,1.608,5.819,5.819,0,0,1,3.012,9.777,16.021,16.021,0,0,0-7.57-3.86V102.87a.818.818,0,0,0-.818-.818H54.962a.818.818,0,0,0-.818.818v1.212a16.023,16.023,0,0,0-7.58,3.869,5.82,5.82,0,0,1,3-9.786.818.818,0,0,0-.025-1.608A10.329,10.329,0,0,0,42,115.265a16.032,16.032,0,0,0-.628,3.7h-.04a.818.818,0,0,0-.818.818V124.6a.818.818,0,0,0,.818.818H73.413a.818.818,0,0,0,.818-.818v-4.819a.818.818,0,0,0-.818-.818h-.04a16.036,16.036,0,0,0-.631-3.707,10.33,10.33,0,0,0-5.859-18.838Zm-11.1,7.272h3.183v15.273H55.779V103.688Zm-16.634,3.059A8.711,8.711,0,0,1,45.762,98.3a7.452,7.452,0,0,0-.358,10.8,16.141,16.141,0,0,0-2.858,4.541A8.618,8.618,0,0,1,39.145,106.746Zm5.212,6.854a14.481,14.481,0,0,1,2.794-3.966.816.816,0,0,0,.082-.1,14.308,14.308,0,0,1,6.91-3.781v13.207H43.005A14.417,14.417,0,0,1,44.357,113.6ZM72.6,123.78H42.147V120.6H72.6Zm-12-4.819V105.754a14.308,14.308,0,0,1,6.856,3.727.811.811,0,0,0,.119.153A14.452,14.452,0,0,1,71,115.165a.813.813,0,0,0,.041.1,14.479,14.479,0,0,1,.691,3.7H60.6Zm11.58-5.316q-.288-.693-.642-1.357l-.025-.047q-.059-.111-.12-.22l-.071-.126-.077-.134q-.056-.1-.114-.194l-.035-.058a15.962,15.962,0,0,0-1.576-2.179q-.1-.114-.2-.225a7.452,7.452,0,0,0-.358-10.8,8.711,8.711,0,0,1,6.616,8.444A8.618,8.618,0,0,1,72.178,113.645Z"/>
      </g>
      <g id="Expanded-2" data-name="Expanded" transform="translate(-769.25 -585)">
        <g id="Grupo_47-2" data-name="Grupo 47" transform="translate(-66)">
          <g id="Grupo_41-2" data-name="Grupo 41" transform="translate(0 8.75)">
            <path id="Trazado_70-2" data-name="Trazado 70" d="M26.206,29H3.794l-.157-.1A8.124,8.124,0,0,1,11.846,14.9l-.574,1.111a6.791,6.791,0,0,0-3.147-.762,6.873,6.873,0,0,0-3.949,12.5H25.824a6.873,6.873,0,0,0-3.949-12.5,6.785,6.785,0,0,0-3.15.764L18.15,14.9A8.124,8.124,0,0,1,26.363,28.9Z" transform="translate(0 -14)"/>
          </g>
          <g id="Grupo_42-2" data-name="Grupo 42" transform="translate(1.264 24.999)">
            <path id="Trazado_71-2" data-name="Trazado 71" d="M27.008,45H4.508a2.5,2.5,0,0,1,0-5h22.5a2.5,2.5,0,0,1,0,5Zm-22.5-3.75a1.25,1.25,0,0,0,0,2.5h22.5a1.25,1.25,0,0,0,0-2.5Z" transform="translate(-2.022 -40)"/>
          </g>
          <g id="Grupo_43-2" data-name="Grupo 43" transform="translate(6.875 8.75)">
            <path id="Trazado_72-2" data-name="Trazado 72" d="M12.059,25.27a.626.626,0,0,1-.589-.414,8.125,8.125,0,1,1,15.313-.014.625.625,0,0,1-1.178-.419,6.875,6.875,0,1,0-12.957.012.624.624,0,0,1-.378.8A.608.608,0,0,1,12.059,25.27Z" transform="translate(-11 -14)"/>
          </g>
          <g id="Grupo_44-2" data-name="Grupo 44" transform="translate(11.25)">
            <path id="Trazado_73-2" data-name="Trazado 73" d="M21.75,7.5A3.75,3.75,0,1,1,25.5,3.75,3.754,3.754,0,0,1,21.75,7.5Zm0-6.25a2.5,2.5,0,1,0,2.5,2.5A2.5,2.5,0,0,0,21.75,1.25Z" transform="translate(-18)"/>
          </g>
          <g id="Grupo_45-2" data-name="Grupo 45" transform="translate(11.25 3.125)">
            <path id="Trazado_74-2" data-name="Trazado 74" d="M24.875,6.25h-6.25a.625.625,0,1,1,0-1.25h6.25a.625.625,0,0,1,0,1.25Z" transform="translate(-18 -5)"/>
          </g>
          <g id="Grupo_46-2" data-name="Grupo 46" transform="translate(14.375 6.25)">
            <path id="Trazado_75-2" data-name="Trazado 75" d="M23.625,13.75A.625.625,0,0,1,23,13.125v-2.5a.625.625,0,0,1,1.25,0v2.5A.625.625,0,0,1,23.625,13.75Z" transform="translate(-23 -10)"/>
          </g>
        </g>
      </g>
      <path id="iconfinder_shield_2561385" d="M16.8,34s12.8-6.4,12.8-16V5.2L16.8,2,4,5.2V18C4,27.6,16.8,34,16.8,34Z" transform="translate(-1057.8 -587.5)" fill="none" stroke="#000" stroke-linecap="round" stroke-linejoin="round" stroke-width="2"/>
      <g id="iconfinder_weapon-16_707474" transform="translate(-937.67 -455.583) rotate(-43)">
        <g id="Grupo_48" data-name="Grupo 48" transform="translate(209.51 25.275)">
          <path id="Trazado_89" data-name="Trazado 89" d="M401.8,181.9h0a1.9,1.9,0,0,1-1.9-1.9V152.5a1.9,1.9,0,0,1,1.9-1.9h0a1.9,1.9,0,0,1,1.9,1.9V180A1.9,1.9,0,0,1,401.8,181.9Z" transform="translate(-399.9 -146.782)" fill="none" stroke="#000" stroke-miterlimit="10" stroke-width="0.5"/>
          <ellipse id="Elipse_15" data-name="Elipse 15" cx="1.423" cy="1.343" rx="1.423" ry="1.343" transform="translate(0.474 5.313)" fill="none" stroke="#000" stroke-miterlimit="10" stroke-width="0.5"/>
          <rect id="Rectángulo_29" data-name="Rectángulo 29" width="3.772" height="6.269" transform="translate(0.011 25.252)"/>
          <path id="Trazado_90" data-name="Trazado 90" d="M582.706,56.626A6.649,6.649,0,0,0,576.547,50L575.2,51.92" transform="translate(-568.547 -50)" fill="none" stroke="#000" stroke-miterlimit="10" stroke-width="0.5"/>
        </g>
        <path id="Trazado_91" data-name="Trazado 91" d="M213.423,34.782h.907l2.7,4.706a7.594,7.594,0,0,0,0-15.187l-2.7,3.84h-7.586L202,31.943l4.744,2.839h2.808" fill="none" stroke="#000" stroke-miterlimit="10" stroke-width="0.5"/>
      </g>
    </g>
    <g id="Grupo_54" data-name="Grupo 54" transform="translate(573 521)">
      <path id="Trazado_92-4" data-name="Trazado 92" d="M153.867,141.274l.95,3.324,6.712,6.032.006.006,4.328,3.89c.9-.9.3-.3,1.256-1.256l-9.928-11.046Zm14.54,13.5-1.036,1.035,2.977,3.984,2.042-2.042Zm-4.5-6.138,1.583,1.761,6.457-5.8.958-3.356-3.5.84Zm-4.515,7.174-1.036-1.035-3.987,2.98,2.042,2.039Zm9.142-2.954L167,154.391l-.006.006-.006.006-1.532,1.532.4.4,3.078-3.078Zm-7.223,3.075-3.078-3.078-.4.4,2.275,2.272.006.006.8.8Zm.017-4.541,1.529,1.374-1.956,1.758-.878-.878-.379-.379Z" transform="translate(-951.523 -749.609)" fill-rule="evenodd"/>
      <g id="Expanded-3" data-name="Expanded" transform="translate(-936.603 -608.367)">
        <g id="Grupo_47-3" data-name="Grupo 47" transform="translate(0)">
          <g id="Grupo_41-3" data-name="Grupo 41" transform="translate(0 5.298)">
            <path id="Trazado_70-3" data-name="Trazado 70" d="M15.868,23.083H2.3L2.2,23.02a4.92,4.92,0,0,1,4.971-8.474l-.347.673a4.112,4.112,0,0,0-1.906-.461,4.162,4.162,0,0,0-2.391,7.569H15.637a4.162,4.162,0,0,0-2.391-7.569,4.109,4.109,0,0,0-1.907.462l-.348-.672a4.919,4.919,0,0,1,4.973,8.472Z" transform="translate(0 -14)"/>
          </g>
          <g id="Grupo_42-3" data-name="Grupo 42" transform="translate(0.765 15.138)">
            <path id="Trazado_71-3" data-name="Trazado 71" d="M17.152,43.028H3.527a1.514,1.514,0,0,1,0-3.028H17.152a1.514,1.514,0,0,1,0,3.028ZM3.527,40.757a.757.757,0,0,0,0,1.514H17.152a.757.757,0,0,0,0-1.514Z" transform="translate(-2.022 -40)"/>
          </g>
          <g id="Grupo_43-3" data-name="Grupo 43" transform="translate(4.163 5.298)">
            <path id="Trazado_72-3" data-name="Trazado 72" d="M11.641,20.824a.379.379,0,0,1-.357-.251,4.92,4.92,0,1,1,9.272-.009.379.379,0,0,1-.713-.254A4.163,4.163,0,1,0,12,20.318a.378.378,0,0,1-.229.484A.368.368,0,0,1,11.641,20.824Z" transform="translate(-11 -14)"/>
          </g>
          <g id="Grupo_44-3" data-name="Grupo 44" transform="translate(6.812)">
            <path id="Trazado_73-3" data-name="Trazado 73" d="M20.271,4.541a2.271,2.271,0,1,1,2.271-2.271A2.273,2.273,0,0,1,20.271,4.541Zm0-3.785a1.514,1.514,0,1,0,1.514,1.514A1.515,1.515,0,0,0,20.271.757Z" transform="translate(-18)"/>
          </g>
          <g id="Grupo_45-3" data-name="Grupo 45" transform="translate(6.812 1.892)">
            <path id="Trazado_74-3" data-name="Trazado 74" d="M22.163,5.757H18.378a.378.378,0,1,1,0-.757h3.785a.378.378,0,0,1,0,.757Z" transform="translate(-18 -5)"/>
          </g>
          <g id="Grupo_46-3" data-name="Grupo 46" transform="translate(8.704 3.785)">
            <path id="Trazado_75-3" data-name="Trazado 75" d="M23.378,12.271A.378.378,0,0,1,23,11.892V10.378a.378.378,0,1,1,.757,0v1.514A.378.378,0,0,1,23.378,12.271Z" transform="translate(-23 -10)"/>
          </g>
        </g>
      </g>
      <path id="iconfinder_shield_2561385-2" data-name="iconfinder_shield_2561385" d="M11.751,21.376S19.5,17.5,19.5,11.688V3.938L11.751,2,4,3.938v7.751C4,17.5,11.751,21.376,11.751,21.376Z" transform="translate(-867.942 -610.67)" fill="none" stroke="#000" stroke-linecap="round" stroke-linejoin="round" stroke-width="2"/>
      <g id="iconfinder_weapon-16_707474-2" data-name="iconfinder_weapon-16_707474" transform="translate(-1016.128 -602.659) rotate(-43)">
        <g id="Grupo_48-2" data-name="Grupo 48" transform="translate(4.548 0.591)">
          <path id="Trazado_89-2" data-name="Trazado 89" d="M1.149,18.954h0A1.149,1.149,0,0,1,0,17.8V1.149A1.149,1.149,0,0,1,1.149,0h0A1.149,1.149,0,0,1,2.3,1.149V17.8A1.149,1.149,0,0,1,1.149,18.954Z" transform="translate(0 2.312)" fill="none" stroke="#000" stroke-miterlimit="10" stroke-width="0.5"/>
          <ellipse id="Elipse_15-2" data-name="Elipse 15" cx="0.862" cy="0.813" rx="0.862" ry="0.813" transform="translate(0.287 3.217)" fill="none" stroke="#000" stroke-miterlimit="10" stroke-width="0.5"/>
          <rect id="Rectángulo_29-2" data-name="Rectángulo 29" width="2.284" height="3.796" transform="translate(0.007 15.291)"/>
          <path id="Trazado_90-2" data-name="Trazado 90" d="M4.545,4.012A4.026,4.026,0,0,0,.816,0L0,1.163" transform="translate(4.028 0)" fill="none" stroke="#000" stroke-miterlimit="10" stroke-width="0.5"/>
        </g>
        <path id="Trazado_91-2" data-name="Trazado 91" d="M6.917,6.347h.549L9.1,9.2A4.6,4.6,0,0,0,9.1,0L7.466,2.326H2.872L0,4.628,2.872,6.347h1.7" transform="translate(0 0)" fill="none" stroke="#000" stroke-miterlimit="10" stroke-width="0.5"/>
      </g>
    </g>
  </g>

			</pattern>
		</defs>

		<rect x="0" y="0" width="100%" height="100%" fill="url(#puzzle)" />
	</svg>