<svg viewBox="0 0 312.75 30.999">
  <g id="Grupo_62" data-name="Grupo 62" transform="translate(1057 666)" opacity="0.999">
    <path id="Trazado_92" data-name="Trazado 92" d="M153.867,141.294l1.568,5.49,11.084,9.962.01.01,7.148,6.423c1.492-1.487.5-.5,2.075-2.075l-16.395-18.242Zm24.012,22.3-1.71,1.71,4.917,6.58,3.373-3.373Zm-7.437-10.137c2.459,2.733-1.1-1.222,2.615,2.908l10.663-9.583,1.582-5.542-5.784,1.388Zm-7.456,11.847-1.71-1.71-6.584,4.922,3.373,3.368Zm15.1-4.879-2.534,2.53-.009.01-.01.01L173,165.5l.659.663,5.083-5.083ZM166.155,165.5l-5.083-5.083-.663.663,3.756,3.752.01.01,1.322,1.322Zm.028-7.5,2.525,2.269-3.231,2.9-1.449-1.449-.626-.625Z" transform="translate(-1210.867 -807.242)" fill-rule="evenodd"/>
    <g id="iconfinder_gaming-game-play-multimedia-console-27_2191197" transform="translate(-1024.48 -761.416)">
      <path id="Trazado_76" data-name="Trazado 76" d="M247.919,212.429a.818.818,0,1,0-.579-.24A.82.82,0,0,0,247.919,212.429Z" transform="translate(-190.548 -103.986)"/>
      <path id="Trazado_77" data-name="Trazado 77" d="M247.919,256.389a.816.816,0,1,0-.579-.239A.823.823,0,0,0,247.919,256.389Z" transform="translate(-190.548 -143.952)"/>
      <path id="Trazado_78" data-name="Trazado 78" d="M247.919,300.359a.817.817,0,1,0-.579-.24A.823.823,0,0,0,247.919,300.359Z" transform="translate(-190.548 -183.926)"/>
      <path id="Trazado_79" data-name="Trazado 79" d="M357.018,371.063a.819.819,0,1,0,.578.24A.82.82,0,0,0,357.018,371.063Z" transform="translate(-289.734 -249.693)"/>
      <path id="Trazado_80" data-name="Trazado 80" d="M247.919,371.063a.819.819,0,1,0,.578.24A.82.82,0,0,0,247.919,371.063Z" transform="translate(-190.548 -249.693)"/>
      <path id="Trazado_81" data-name="Trazado 81" d="M138.818,371.063a.819.819,0,1,0,.578.24A.82.82,0,0,0,138.818,371.063Z" transform="translate(-91.36 -249.693)"/>
      <path id="Trazado_82" data-name="Trazado 82" d="M66.883,96.416a10.314,10.314,0,0,0-1.7.141.818.818,0,0,0-.025,1.608,5.819,5.819,0,0,1,3.012,9.777,16.021,16.021,0,0,0-7.57-3.86V102.87a.818.818,0,0,0-.818-.818H54.962a.818.818,0,0,0-.818.818v1.212a16.023,16.023,0,0,0-7.58,3.869,5.82,5.82,0,0,1,3-9.786.818.818,0,0,0-.025-1.608A10.329,10.329,0,0,0,42,115.265a16.032,16.032,0,0,0-.628,3.7h-.04a.818.818,0,0,0-.818.818V124.6a.818.818,0,0,0,.818.818H73.413a.818.818,0,0,0,.818-.818v-4.819a.818.818,0,0,0-.818-.818h-.04a16.036,16.036,0,0,0-.631-3.707,10.33,10.33,0,0,0-5.859-18.838Zm-11.1,7.272h3.183v15.273H55.779V103.688Zm-16.634,3.059A8.711,8.711,0,0,1,45.762,98.3a7.452,7.452,0,0,0-.358,10.8,16.141,16.141,0,0,0-2.858,4.541A8.618,8.618,0,0,1,39.145,106.746Zm5.212,6.854a14.481,14.481,0,0,1,2.794-3.966.816.816,0,0,0,.082-.1,14.308,14.308,0,0,1,6.91-3.781v13.207H43.005A14.417,14.417,0,0,1,44.357,113.6ZM72.6,123.78H42.147V120.6H72.6Zm-12-4.819V105.754a14.308,14.308,0,0,1,6.856,3.727.811.811,0,0,0,.119.153A14.452,14.452,0,0,1,71,115.165a.813.813,0,0,0,.041.1,14.479,14.479,0,0,1,.691,3.7H60.6Zm11.58-5.316q-.288-.693-.642-1.357l-.025-.047q-.059-.111-.12-.22l-.071-.126-.077-.134q-.056-.1-.114-.194l-.035-.058a15.962,15.962,0,0,0-1.576-2.179q-.1-.114-.2-.225a7.452,7.452,0,0,0-.358-10.8,8.711,8.711,0,0,1,6.616,8.444A8.618,8.618,0,0,1,72.178,113.645Z"/>
    </g>
    <g id="iconfinder_039_033_castle_horror_dracula_halloween_3792017" transform="translate(-911.429 -668)">
      <path id="Trazado_63" data-name="Trazado 63" d="M9.451,16.064H3V12.838L6.226,8l3.226,4.838Z" transform="translate(0 3.677)"/>
      <path id="Trazado_64" data-name="Trazado 64" d="M23.451,16.064H17V12.838L20.226,8l3.226,4.838Z" transform="translate(8.579 3.677)"/>
      <path id="Trazado_65" data-name="Trazado 65" d="M9,8V19.29h9.677V8Zm6.451,8.064H12.226V12.838a1.613,1.613,0,1,1,3.226,0Z" transform="translate(3.677 3.677)"/>
      <path id="Trazado_66" data-name="Trazado 66" d="M4,12V26.515h9.677V21.677a3.226,3.226,0,0,1,6.451,0v4.838h9.677V12l-3.226,1.613H7.226Zm6.451,9.677H7.226V18.451a1.613,1.613,0,1,1,3.226,0Zm16.128,0H23.354V18.451a1.613,1.613,0,1,1,3.226,0Z" transform="translate(0.613 6.128)"/>
      <path id="Trazado_67" data-name="Trazado 67" d="M20.9,13.29H8V10.064L14.451,2,20.9,10.064Z" transform="translate(3.064)"/>
    </g>
    <g id="iconfinder_weapon-13_707478" transform="translate(-891.044 -690)">
      <path id="Trazado_83" data-name="Trazado 83" d="M456.478,522.2a19.455,19.455,0,0,1-4.029,11.1l-.431.27v2.277H450.5v-2.277l.246-.507A19.419,19.419,0,0,0,454.6,522.1" transform="translate(-387.856 -482.008)" fill="none" stroke="#000" stroke-miterlimit="10" stroke-width="0.7"/>
      <path id="Trazado_84" data-name="Trazado 84" d="M454.6,38.881c0-.046,0-.094,0-.14a19.445,19.445,0,0,0-3.959-11.157l-.143-.307V25h1.518v2.277l.376.14a19.426,19.426,0,0,1,4.093,11.406" transform="translate(-387.856)" fill="none" stroke="#000" stroke-miterlimit="10" stroke-width="0.7"/>
      <circle id="Elipse_14" data-name="Elipse 14" cx="1.139" cy="1.139" r="1.139" transform="translate(66.573 38.352)" fill="none" stroke="#000" stroke-miterlimit="10" stroke-width="0.7"/>
      <path id="Trazado_85" data-name="Trazado 85" d="M163.825,478.818H150.5V477.3h13.325" transform="translate(-96.964 -438.568)" fill="none" stroke="#000" stroke-miterlimit="10" stroke-width="0.7"/>
      <path id="Trazado_86" data-name="Trazado 86" d="M650.4,477.3h5.286v1.518h-5.243" transform="translate(-581.687 -438.568)" fill="none" stroke="#000" stroke-miterlimit="10" stroke-width="0.7"/>
      <line id="Línea_3" data-name="Línea 3" y1="0.628" x2="0.962" transform="translate(75.462 39.409)" fill="none" stroke="#000" stroke-miterlimit="10" stroke-width="0.7"/>
      <path id="Trazado_87" data-name="Trazado 87" d="M824.5,449.859l1.518-.859,2.277,1.548-2.277,1.488-1.488-.729" transform="translate(-750.501 -411.127)" fill="none" stroke="#000" stroke-miterlimit="10" stroke-width="0.7"/>
      <rect id="Rectángulo_28" data-name="Rectángulo 28" width="5" height="1" transform="translate(54.794 39)"/>
      <path id="Trazado_88" data-name="Trazado 88" d="M53.536,450.829,50.5,450l1.518,1.518L50.5,453.036l3.036-.689" transform="translate(0 -412.097)" fill="none" stroke="#000" stroke-miterlimit="10" stroke-width="0.7"/>
      <line id="Línea_4" data-name="Línea 4" y1="11.191" x2="9.791" transform="translate(52.853 27.277)" fill="none" stroke="#000" stroke-miterlimit="10" stroke-width="0.7"/>
      <line id="Línea_5" data-name="Línea 5" x1="9.77" y1="11.163" transform="translate(52.874 40.402)" fill="none" stroke="#000" stroke-miterlimit="10" stroke-width="0.7"/>
    </g>
    <g id="Expanded" transform="translate(-774.25 -665)">
      <g id="Grupo_47" data-name="Grupo 47">
        <g id="Grupo_41" data-name="Grupo 41" transform="translate(0 8.75)">
          <path id="Trazado_70" data-name="Trazado 70" d="M26.206,29H3.794l-.157-.1A8.124,8.124,0,0,1,11.846,14.9l-.574,1.111a6.791,6.791,0,0,0-3.147-.762,6.873,6.873,0,0,0-3.949,12.5H25.824a6.873,6.873,0,0,0-3.949-12.5,6.785,6.785,0,0,0-3.15.764L18.15,14.9A8.124,8.124,0,0,1,26.363,28.9Z" transform="translate(0 -14)"/>
        </g>
        <g id="Grupo_42" data-name="Grupo 42" transform="translate(1.264 24.999)">
          <path id="Trazado_71" data-name="Trazado 71" d="M27.008,45H4.508a2.5,2.5,0,0,1,0-5h22.5a2.5,2.5,0,0,1,0,5Zm-22.5-3.75a1.25,1.25,0,0,0,0,2.5h22.5a1.25,1.25,0,0,0,0-2.5Z" transform="translate(-2.022 -40)"/>
        </g>
        <g id="Grupo_43" data-name="Grupo 43" transform="translate(6.875 8.75)">
          <path id="Trazado_72" data-name="Trazado 72" d="M12.059,25.27a.626.626,0,0,1-.589-.414,8.125,8.125,0,1,1,15.313-.014.625.625,0,0,1-1.178-.419,6.875,6.875,0,1,0-12.957.012.624.624,0,0,1-.378.8A.608.608,0,0,1,12.059,25.27Z" transform="translate(-11 -14)"/>
        </g>
        <g id="Grupo_44" data-name="Grupo 44" transform="translate(11.25)">
          <path id="Trazado_73" data-name="Trazado 73" d="M21.75,7.5A3.75,3.75,0,1,1,25.5,3.75,3.754,3.754,0,0,1,21.75,7.5Zm0-6.25a2.5,2.5,0,1,0,2.5,2.5A2.5,2.5,0,0,0,21.75,1.25Z" transform="translate(-18)"/>
        </g>
        <g id="Grupo_45" data-name="Grupo 45" transform="translate(11.25 3.125)">
          <path id="Trazado_74" data-name="Trazado 74" d="M24.875,6.25h-6.25a.625.625,0,1,1,0-1.25h6.25a.625.625,0,0,1,0,1.25Z" transform="translate(-18 -5)"/>
        </g>
        <g id="Grupo_46" data-name="Grupo 46" transform="translate(14.375 6.25)">
          <path id="Trazado_75" data-name="Trazado 75" d="M23.625,13.75A.625.625,0,0,1,23,13.125v-2.5a.625.625,0,0,1,1.25,0v2.5A.625.625,0,0,1,23.625,13.75Z" transform="translate(-23 -10)"/>
        </g>
      </g>
    </g>
  </g>
</svg>
