<svg viewBox="0 0 31.503 19.645">
  <g id="Icons" transform="translate(-7.869 -16.3)">
    <g id="Grupo_38" data-name="Grupo 38">
      <path id="Trazado_37" data-name="Trazado 37" d="M26.434,33.715a1.42,1.42,0,0,0-.128-.143c-.637-.617-5.617-3.146-5.811-3.644a5.047,5.047,0,0,1-.267-1.639h1.226a.35.35,0,0,0,.268-.575l-.021-.024c1.478-.322,1.478-.461,1.478-.713,0-.1,0-.247-.586-1.017.058-.233.122-.462.207-.7.107-.3.213-.6.3-.908a4.2,4.2,0,0,0,.082-1.426,9.649,9.649,0,0,0-.258-1.662,10.12,10.12,0,0,0-.584-1.731,7.5,7.5,0,0,0-.927-1.574,4.669,4.669,0,0,0-1.3-1.173,3.489,3.489,0,0,0-1.7-.483,4.467,4.467,0,0,0-1.948.461,3.535,3.535,0,0,0-1.069.189,4.163,4.163,0,0,0-1.8,1.276,6.424,6.424,0,0,0-1.134,2.033,7.889,7.889,0,0,0-.444,2.358,7.137,7.137,0,0,0,.055,1.178c.026.189.06.379.1.565a4.345,4.345,0,0,0,.176.548l.058.156c.044.124.078.252.128.439.042.151.081.3.119.455-.587.771-.587.918-.587,1.017,0,.252,0,.392,1.485.715l-.021.025a.35.35,0,0,0,.271.572h1.217a5.05,5.05,0,0,1-.269,1.643c-.188.483-.75.755-1.294,1.018-.125.061-.248.12-.364.181l-.592.3c-.292.15-.583.3-.871.451-.163.086-.332.173-.5.261a9.155,9.155,0,0,0-2.226,1.425c-.007.007-.1.117-.106.125a4.322,4.322,0,0,0-.914,1.831.35.35,0,0,0,.343.418H26.99a.35.35,0,0,0,.343-.418A4.279,4.279,0,0,0,26.434,33.715Z" fill="#303030"/>
      <path id="Trazado_93" data-name="Trazado 93" d="M28.463,34.3a6.59,6.59,0,0,0-3.473-4.2c.17-.084.264-.12.424-.2a2.257,2.257,0,0,0,1.376-1.373,3.632,3.632,0,0,0,.331-1.579l-.341-.439a7.406,7.406,0,0,1-.451-1.872c-.311,0-.551-.335-.631-.6a6.609,6.609,0,0,1-.3-1.244,1.137,1.137,0,0,1,.15-.972c.04-.052.4-.146.451-.031-.04-.073-.09-2.06-.09-2.06a5.749,5.749,0,0,1-.02-2.144c.241-.952.732-1.474,1.483-1.474a4.339,4.339,0,0,1,3.829-.763A3.988,3.988,0,0,1,34.055,18.3l.14,1.077-.471.356s-.05,1.987-.08,2.06c.05-.115.411-.021.451.031.251.251.18.648.15.972a6.633,6.633,0,0,1-.311,1.244c-.08.261-.321.6-.621.6a7.877,7.877,0,0,1-.451,1.872l-.341.439a3.771,3.771,0,0,0,.321,1.579,2.852,2.852,0,0,0,1.594,1.474c.521.272,1.032.544,1.543.826a11.77,11.77,0,0,1,2.806,1.757l.1.1a4.132,4.132,0,0,1,.882,1.61H28.463" transform="translate(-0.396 1.524)" fill="#303030"/>
    </g>
  </g>
</svg>
