<svg viewBox="0 0 14.277 11.778">
  <path id="Trazado_13" data-name="Trazado 13" d="M22.277,12.428a1.361,1.361,0,0,0-.625-1.071,1.353,1.353,0,0,0,.268-1.16,1.164,1.164,0,0,0-.892-.8,1.122,1.122,0,0,0-.178-1.16,1.12,1.12,0,0,0-.982-.535,1.272,1.272,0,0,0-.535-1.071,1.366,1.366,0,0,0-1.16-.178,1.316,1.316,0,0,0-.8-.892,1.082,1.082,0,0,0-1.16.268A1.238,1.238,0,0,0,15.138,5.2a1.361,1.361,0,0,0-1.071.625,1.353,1.353,0,0,0-1.16-.268,1.164,1.164,0,0,0-.8.892,1.122,1.122,0,0,0-1.16.178A1.394,1.394,0,0,0,10.409,7.7a1.272,1.272,0,0,0-1.071.535,1.366,1.366,0,0,0-.178,1.16,1.316,1.316,0,0,0-.892.8,1.082,1.082,0,0,0,.268,1.16A1.272,1.272,0,0,0,8,12.428,1.361,1.361,0,0,0,8.625,13.5a1.353,1.353,0,0,0-.268,1.16,1.164,1.164,0,0,0,.892.8,1.122,1.122,0,0,0,.178,1.16.7.7,0,0,0,.357.357h.446v-2.5a2.362,2.362,0,0,1,2.32-2.32h0a1.187,1.187,0,0,1,.714.268,2.88,2.88,0,0,0,1.874.714,2.71,2.71,0,0,0,1.874-.714,1.439,1.439,0,0,1,.8-.268h0a2.362,2.362,0,0,1,2.32,2.32v2.5h.446a.7.7,0,0,0,.357-.357,1.366,1.366,0,0,0,.178-1.16,1.316,1.316,0,0,0,.892-.8,1.082,1.082,0,0,0-.268-1.16A1.168,1.168,0,0,0,22.277,12.428Z" transform="translate(-8 -5.2)" fill="#070707"/>
</svg>
