<svg viewBox="0 0 6.218 17.697">
  <path id="Trazado_3" data-name="Trazado 3" d="M12.436,5.1a1.182,1.182,0,0,0,1.155,1.116H16.7a1.048,1.048,0,0,0,1-1.116V1.036A.979.979,0,0,0,16.7,0H13.591a1.115,1.115,0,0,0-1.155,1.036V1.2H5.261V1.036A.979.979,0,0,0,4.264,0H1.155A1.115,1.115,0,0,0,0,1.036V5.1A1.182,1.182,0,0,0,1.155,6.218H4.264a1.048,1.048,0,0,0,1-1.116v-.08h7.174Zm.957-.12V1.036c0-.065.134-.08.2-.08H16.7c.065,0,.041.015.041.08V5.1c0,.065.024.159-.041.159H13.591c-.065,0-.2-.094-.2-.159Zm-9.128.279H1.155c-.065,0-.2-.094-.2-.159V1.036c0-.065.134-.08.2-.08H4.264c.065,0,.041.015.041.08V5.1C4.3,5.167,4.329,5.261,4.264,5.261Zm2.193-1.2h-1.2V2.152h1.2Zm4.3,0H6.935V2.152h3.826Zm.478,0V2.152h1.2V4.066Z" transform="translate(0 17.697) rotate(-90)" fill="#231f20"/>
</svg>
