<svg viewBox="0 0 14.341 10.475">
  <path id="Trazado_40" data-name="Trazado 40" d="M247.4,211.385a.3.3,0,1,0-.209-.087A.3.3,0,0,0,247.4,211.385Z" transform="translate(-240.222 -207.04)"/>
  <path id="Trazado_41" data-name="Trazado 41" d="M247.4,255.345a.295.295,0,1,0-.209-.086A.3.3,0,0,0,247.4,255.345Z" transform="translate(-240.222 -249.557)"/>
  <path id="Trazado_42" data-name="Trazado 42" d="M247.4,299.315a.3.3,0,1,0-.209-.087A.3.3,0,0,0,247.4,299.315Z" transform="translate(-240.222 -292.084)"/>
  <path id="Trazado_43" data-name="Trazado 43" d="M356.5,371.063a.3.3,0,1,0,.209.087A.3.3,0,0,0,356.5,371.063Z" transform="translate(-345.741 -362.049)"/>
  <path id="Trazado_44" data-name="Trazado 44" d="M247.4,371.063a.3.3,0,1,0,.209.087A.3.3,0,0,0,247.4,371.063Z" transform="translate(-240.222 -362.049)"/>
  <path id="Trazado_45" data-name="Trazado 45" d="M138.3,371.063a.3.3,0,1,0,.209.087A.3.3,0,0,0,138.3,371.063Z" transform="translate(-134.702 -362.049)"/>
  <path id="Trazado_46" data-name="Trazado 46" d="M48.12,96.416a3.725,3.725,0,0,0-.615.051.3.3,0,0,0-.009.581,2.1,2.1,0,0,1,1.088,3.531,5.787,5.787,0,0,0-2.734-1.394v-.438a.3.3,0,0,0-.3-.3H43.814a.3.3,0,0,0-.3.3v.438a5.787,5.787,0,0,0-2.738,1.4,2.1,2.1,0,0,1,1.085-3.535.3.3,0,0,0-.009-.581,3.731,3.731,0,0,0-2.725,6.757,5.791,5.791,0,0,0-.227,1.335h-.014a.3.3,0,0,0-.3.3V106.6a.3.3,0,0,0,.3.3H50.478a.3.3,0,0,0,.3-.3v-1.741a.3.3,0,0,0-.3-.3h-.014a5.792,5.792,0,0,0-.228-1.339,3.731,3.731,0,0,0-2.116-6.8Zm-4.011,2.627h1.15v5.517h-1.15V99.043Zm-6.008,1.1a3.147,3.147,0,0,1,2.39-3.05,2.692,2.692,0,0,0-.129,3.9,5.83,5.83,0,0,0-1.032,1.64A3.113,3.113,0,0,1,38.1,100.147Zm1.882,2.476a5.231,5.231,0,0,1,1.009-1.433.294.294,0,0,0,.03-.036,5.168,5.168,0,0,1,2.5-1.366v4.771H39.495A5.208,5.208,0,0,1,39.983,102.623Zm10.2,3.677h-11v-1.15h11v1.15Zm-4.333-1.741V99.789a5.168,5.168,0,0,1,2.476,1.346.293.293,0,0,0,.043.055,5.22,5.22,0,0,1,1.239,2,.293.293,0,0,0,.015.036,5.23,5.23,0,0,1,.25,1.335H45.85Zm4.183-1.92q-.1-.25-.232-.49l-.009-.017-.043-.08-.025-.046-.028-.048-.041-.07-.013-.021a5.765,5.765,0,0,0-.569-.787L49,101a2.692,2.692,0,0,0-.129-3.9,3.146,3.146,0,0,1,2.39,3.05A3.113,3.113,0,0,1,50.032,102.639Z" transform="translate(-37.51 -96.416)"/>
</svg>
