<svg viewBox="0 0 17.697 6.218">
  <path id="Trazado_4" data-name="Trazado 4" d="M12.436,24.1a1.182,1.182,0,0,0,1.155,1.116H16.7a1.048,1.048,0,0,0,1-1.116V20.036A.979.979,0,0,0,16.7,19H13.591a1.115,1.115,0,0,0-1.155,1.036V20.2H5.261v-.159a.979.979,0,0,0-1-1.036H1.155A1.115,1.115,0,0,0,0,20.036V24.1a1.182,1.182,0,0,0,1.155,1.116H4.264a1.048,1.048,0,0,0,1-1.116v-.08h7.174Zm.957-.12V20.036c0-.065.134-.08.2-.08H16.7c.065,0,.041.015.041.08V24.1c0,.065.024.159-.041.159H13.591c-.065,0-.2-.094-.2-.159Zm-9.128.279H1.155c-.065,0-.2-.094-.2-.159V20.036c0-.065.134-.08.2-.08H4.264c.065,0,.041.015.041.08V24.1C4.3,24.167,4.329,24.261,4.264,24.261Zm2.193-1.2h-1.2V21.152h1.2Zm4.3,0H6.935V21.152h3.826Zm.478,0V21.152h1.2v1.913Z" transform="translate(0 -19)" fill="#231f20"/>
</svg>
